<svg width="32" height="32" viewBox="0 0 32 32" fill="none" xmlns="http://www.w3.org/2000/svg">
<path d="M31.7394 8.87503C31.6476 8.74476 31.526 8.63844 31.3846 8.56501C31.2432 8.49158 31.0862 8.4532 30.9269 8.45309H9.70393L8.09743 2.91309C7.46743 0.731594 5.9704 0.496094 5.3564 0.496094H1.0729C0.523865 0.496094 0.0798645 0.940594 0.0798645 1.48909C0.0798645 2.03759 0.524365 2.48206 1.07286 2.48206H5.35586C5.49136 2.48206 5.90486 2.48206 6.1869 3.45656L11.7134 23.7671C11.8334 24.1956 12.2239 24.4915 12.6694 24.4915H26.1684C26.5874 24.4915 26.9614 24.229 27.1029 23.8345L31.8609 9.78203C31.9704 9.47753 31.9249 9.13853 31.7394 8.87503H31.7394ZM25.4696 22.5061H13.4231L10.2621 10.4396H29.5151L25.4696 22.5061ZM23.5001 26.5041C22.1191 26.5041 21.0001 27.6231 21.0001 29.0041C21.0001 30.3851 22.1191 31.5041 23.5001 31.5041C24.8811 31.5041 26.0001 30.3851 26.0001 29.0041C26.0001 27.6231 24.8811 26.5041 23.5001 26.5041ZM14.5001 26.5041C13.1191 26.5041 12.0001 27.6231 12.0001 29.0041C12.0001 30.3851 13.1191 31.5041 14.5001 31.5041C15.8811 31.5041 17.0001 30.3851 17.0001 29.0041C17.0001 27.6231 15.8811 26.5041 14.5001 26.5041Z" fill="#081658"/>
</svg>
