<svg viewBox="0 0 44 35" fill="none" xmlns="http://www.w3.org/2000/svg">
<path fill-rule="evenodd" clip-rule="evenodd" d="M3.30841 2.95449C7.29791 -0.875433 13.7444 -0.875433 17.7339 2.95449L22.0002 7.05029L26.2667 2.95449C30.2563 -0.875433 36.7027 -0.875433 40.6923 2.95449C44.6817 6.78441 44.6817 12.973 40.6923 16.803L22.0002 34.7472L3.30841 16.803C-0.681091 12.973 -0.681091 6.78441 3.30841 2.95449ZM14.7876 5.78291C12.4253 3.51509 8.61701 3.51509 6.25468 5.78291C3.89237 8.05073 3.89237 11.7067 6.25468 13.9746L22.0002 29.0904L37.7461 13.9746C40.1084 11.7067 40.1084 8.05073 37.7461 5.78291C35.3838 3.51509 31.5755 3.51509 29.2132 5.78291L22.0002 12.7072L14.7876 5.78291Z" fill="#F36223"/>
<path d="M6 5.5L22 21L38 5.5" stroke="#F36223" stroke-width="13"/>
</svg>
